PathFileType	4	(X/Y/Z)	TVC_16_BWA4_walk_RCNL2025.trc
DataRate	CameraRate	NumFrames	NumMarkers	Units	OrigDataRate	OrigDataStartFrame	OrigNumFrames
100	100	5	27	mm	100	119	947
Frame#	Time	R_Shoulder			L_Shoulder			C7			J_Notch			R_Elbow			L_Elbow			R_Wrist			L_Wrist			R_Asis			L_Asis			R_Psis			L_Psis			Sacral			Thoracic			Sternum			R_Thigh_Lateral			R_Knee_Lateral			R_Shank_Lateral			R_Ankle_Lateral			R_Heel			R_Toe			L_Thigh_Lateral			L_Knee_Lateral			L_Shank_Lateral			L_Ankle_Lateral			L_Heel			L_Toe		
		X1	Y1	Z1	X2	Y2	Z2	X3	Y3	Z3	X4	Y4	Z4	X5	Y5	Z5	X6	Y6	Z6	X7	Y7	Z7	X8	Y8	Z8	X9	Y9	Z9	X10	Y10	Z10	X11	Y11	Z11	X12	Y12	Z12	X13	Y13	Z13	X14	Y14	Z14	X15	Y15	Z15	X16	Y16	Z16	X17	Y17	Z17	X18	Y18	Z18	X19	Y19	Z19	X20	Y20	Z20	X21	Y21	Z21	X22	Y22	Z22	X23	Y23	Z23	X24	Y24	Z24	X25	Y25	Z25	X26	Y26	Z26	X27	Y27	Z27
119	1.18000000	-1703.114746	1271.230591	430.177979	-1685.998047	1270.379639	105.475647	-1747.081543	1335.465332	272.343475	-1630.995117	1186.049805	283.753601	-1736.605591	966.527893	527.463074	-1714.758789	952.522217	35.307686	-1633.082642	758.615570	511.391205	-1632.412659	758.363892	98.914452	-1729.788452	847.873291	403.754822	-1732.048096	865.398132	139.548264	-1900.660034	902.929443	325.531372	-1898.915283	901.460938	218.440826	-1899.787659	902.195190	271.986099	-1858.158813	1083.958984	265.723877	-1629.463501	992.361633	271.377838	-1823.158447	574.321472	483.841095	-1834.783325	400.788391	390.853394	-1906.896118	256.105408	439.906403	-1996.388550	56.441677	358.940552	-2040.371460	54.271065	304.413361	-1874.486816	34.930851	335.367828	-1692.964966	588.827393	54.877892	-1622.098633	429.213501	154.595047	-1655.659424	277.688202	94.216042	-1664.687622	55.362347	173.831985	-1711.203247	47.866810	219.750854	-1531.756714	36.873714	210.021805
120	1.19000000	-1698.594849	1271.342896	427.434082	-1681.879028	1269.620972	102.662254	-1743.170776	1335.254272	269.267029	-1626.708618	1185.956177	281.161835	-1732.504272	967.341736	526.447815	-1709.964844	951.528625	33.239361	-1629.596558	759.123444	509.531479	-1626.680908	758.003510	97.802074	-1726.064575	847.763306	402.551178	-1728.314575	865.109192	138.181763	-1896.876221	903.051636	324.425201	-1895.114136	901.403198	217.275406	-1895.995178	902.227417	270.850304	-1854.129150	1083.830811	263.911835	-1625.500244	991.926636	269.586517	-1820.937378	574.506653	482.941132	-1833.425171	400.926910	390.256165	-1906.151611	256.660553	439.526428	-1996.241943	57.172314	358.799561	-2040.163330	55.093578	304.264923	-1874.444824	34.959396	335.350372	-1689.183105	588.331116	53.977104	-1618.807251	428.690125	154.072372	-1653.496826	277.434540	93.777542	-1664.845337	55.204769	174.020172	-1711.035278	48.036152	219.685181	-1531.642334	36.798225	210.180145
121	1.20000000	-1694.067139	1271.512329	424.667389	-1677.856934	1268.905273	99.804802	-1739.277344	1335.103760	266.172058	-1622.430054	1185.935059	278.517731	-1728.173340	968.213379	525.372314	-1705.037842	950.596558	31.146662	-1626.096130	759.607025	507.582321	-1620.898621	757.683838	96.651131	-1722.392822	847.803528	401.461700	-1724.463501	864.828918	136.929367	-1893.109741	903.249451	323.167358	-1891.237915	901.357178	215.941666	-1892.173828	902.303314	269.554512	-1850.114380	1083.760376	262.066589	-1621.514648	991.585754	267.737213	-1818.762085	574.776428	482.073822	-1831.892334	401.122833	389.716888	-1905.279663	257.277863	439.179047	-1996.054077	58.008987	358.675415	-2039.910522	56.054569	304.132019	-1874.389160	34.992477	335.340485	-1686.146240	587.604980	53.107128	-1615.744385	428.137695	153.581161	-1651.587646	277.189819	93.353073	-1665.119751	54.999695	174.230850	-1710.898438	48.182873	219.628754	-1531.560547	36.719963	210.328156
122	1.21000000	-1689.537842	1271.759888	421.873199	-1673.929077	1268.240601	96.908058	-1735.403809	1335.023438	263.060608	-1618.173828	1185.991821	275.821838	-1723.624390	969.160461	524.222351	-1699.997925	949.741821	29.030624	-1622.598816	760.084351	505.560455	-1615.082520	757.409912	95.434700	-1718.780884	847.997009	400.488831	-1720.483276	864.589355	135.804901	-1889.361450	903.531494	321.770660	-1887.294800	901.356506	214.463242	-1888.328125	902.444000	268.116951	-1846.119385	1083.759521	260.196960	-1617.515503	991.355652	265.852692	-1816.585449	575.122009	481.232300	-1830.120605	401.364532	389.235229	-1904.232544	257.950714	438.860168	-1995.813110	58.965565	358.567108	-2039.602295	57.173061	304.011566	-1874.315674	35.030891	335.336731	-1683.811401	586.712463	52.281536	-1612.894409	427.586517	153.122009	-1649.884521	276.963531	92.941422	-1665.473999	54.760662	174.442184	-1710.786987	48.313339	219.574326	-1531.505005	36.641827	210.460403
123	1.22000000	-1685.012451	1272.104980	419.045990	-1670.089355	1267.635986	93.978600	-1731.552368	1335.021851	259.935394	-1613.955688	1186.129272	273.074890	-1718.877930	970.199463	522.986084	-1694.864014	948.982300	26.888088	-1619.126709	760.573517	503.489594	-1609.248779	757.188690	94.128529	-1715.232300	848.340088	399.627319	-1716.373535	864.419373	134.813690	-1885.630737	903.902771	320.258392	-1883.296143	901.431335	212.873596	-1884.463440	902.667053	266.565994	-1842.147583	1083.838135	258.312744	-1613.514771	991.248840	263.956696	-1814.352051	575.532471	480.411133	-1828.047485	401.637726	388.812042	-1902.963867	258.670868	438.565247	-1995.505737	60.056225	358.471405	-2039.225952	58.468887	303.897125	-1874.220459	35.075150	335.335876	-1682.072388	585.731873	51.510433	-1610.241821	427.060577	152.691513	-1648.344604	276.759552	92.541023	-1665.865723	54.502808	174.630676	-1710.696045	48.432568	219.514740	-1531.470093	36.567059	210.572937
